<?xml version="1.0" encoding="utf-8"?>
<!-- Generator: Adobe Illustrator 26.0.0, SVG Export Plug-In . SVG Version: 6.00 Build 0)  -->
<svg version="1.1" xmlns="http://www.w3.org/2000/svg" xmlns:xlink="http://www.w3.org/1999/xlink" x="0px" y="0px"
	 viewBox="0 0 4000 3000" style="enable-background:new 0 0 4000 3000;" xml:space="preserve">
<style type="text/css">
	.st0{fill:#E8E8F7;}
	.st1{fill:#8A6BFF;}
	.st2{fill:#292F52;}
	.st3{fill:#CFD2D3;}
	.st4{fill:#E5E7E8;}
	.st5{fill:#3E4463;}
	.st6{fill:#D8D8E6;}
	.st7{fill:#8A3EFF;}
	.st8{fill:#E6E8E8;}
	.st9{fill:#A2A9AD;}
	.st10{fill:#FFA993;}
	.st11{fill:#FF7D71;}
	.st12{fill:#FFB29E;}
	.st13{fill:#FF7167;}
</style>
<g id="Layer_1">
	<path class="st0" d="M540.75,2109.27c254.5,610.91,606.04,284.83,1052.97,85.54c258.88-115.43,445.41-122.3,709.71-24.54
		c300.78,111.26,646.11,204.99,914.77-55.65c605.21-587.14,24.69-1814.18-697.7-1669.32c-244.64,49.05-431.52,280.33-670.63,326.29
		c-232.49,44.69-425.91-202.61-622.17-308c-346.93-186.3-613.57,78.94-740.25,463.15C354.67,1329.47,389.88,1725.39,540.75,2109.27z
		"/>
	<g>
		<path class="st1" d="M3916.58,450.96v743.97c0,42.4-34.69,77.08-77.09,77.08h-813.14c-42.4,0-77.09-34.68-77.09-77.08V450.96
			c0-42.39,34.69-77.07,77.09-77.07h813.14C3881.89,373.88,3916.58,408.56,3916.58,450.96z"/>
		<path class="st2" d="M3916.58,450.96v85.48h-967.31v-85.48c0-42.39,34.69-77.07,77.09-77.07h813.14
			C3881.89,373.88,3916.58,408.56,3916.58,450.96z"/>
		<path class="st1" d="M3800.96,454.76c0,14.9,12.08,26.98,26.98,26.98c14.88,0,26.97-12.08,26.97-26.98
			c0-14.9-12.09-26.98-26.97-26.98C3813.04,427.79,3800.96,439.87,3800.96,454.76z"/>
		<path class="st1" d="M3699.79,454.76c0,14.9,12.08,26.98,26.97,26.98s26.98-12.08,26.98-26.98c0-14.9-12.08-26.98-26.98-26.98
			S3699.79,439.87,3699.79,454.76z"/>
		<path class="st3" d="M3368.05,454.77c0,14.84-16.68,26.97-37.08,26.97h-284.24c-20.4,0-37.08-12.14-37.08-26.97
			c0-14.84,16.67-26.98,37.08-26.98h284.24C3351.37,427.79,3368.05,439.93,3368.05,454.77z"/>
		<g>
			<g>
				<path class="st4" d="M3597.99,663.96h-536.96c-10.65,0-19.28-8.63-19.28-19.27c0-10.64,8.64-19.27,19.28-19.27h536.96
					c10.65,0,19.26,8.63,19.26,19.27C3617.26,655.33,3608.64,663.96,3597.99,663.96z"/>
			</g>
			<g>
				<path class="st4" d="M3487.52,753.42H3163.8c-10.65,0-19.26-8.63-19.26-19.27c0-10.65,8.62-19.27,19.26-19.27h323.72
					c10.65,0,19.26,8.63,19.26,19.27C3506.78,744.8,3498.17,753.42,3487.52,753.42z"/>
			</g>
			<g>
				<path class="st4" d="M3680.21,842.9H3163.8c-10.65,0-19.26-8.63-19.26-19.27c0-10.64,8.62-19.27,19.26-19.27h516.41
					c10.65,0,19.26,8.63,19.26,19.27C3699.47,834.27,3690.85,842.9,3680.21,842.9z"/>
			</g>
			<g>
				<path class="st4" d="M3597.99,932.36H3305.1c-10.65,0-19.26-8.62-19.26-19.27c0-10.64,8.62-19.27,19.26-19.27h292.89
					c10.65,0,19.26,8.63,19.26,19.27C3617.26,923.74,3608.64,932.36,3597.99,932.36z"/>
			</g>
			<g>
				<path class="st4" d="M3770.13,1021.83H3163.8c-10.65,0-19.26-8.63-19.26-19.27c0-10.64,8.62-19.27,19.26-19.27h606.33
					c10.65,0,19.26,8.63,19.26,19.27C3789.39,1013.21,3780.77,1021.83,3770.13,1021.83z"/>
			</g>
			<g>
				<path class="st4" d="M3325.67,1111.31h-264.63c-10.65,0-19.28-8.63-19.28-19.27c0-10.65,8.64-19.27,19.28-19.27h264.63
					c10.63,0,19.26,8.63,19.26,19.27C3344.93,1102.68,3336.3,1111.31,3325.67,1111.31z"/>
			</g>
			<g>
				<path class="st4" d="M3597.99,1200.77h-434.2c-10.65,0-19.26-8.62-19.26-19.27c0-10.65,8.62-19.27,19.26-19.27h434.2
					c10.65,0,19.26,8.62,19.26,19.27C3617.26,1192.15,3608.64,1200.77,3597.99,1200.77z"/>
			</g>
		</g>
	</g>
	<path class="st5" d="M671.38,1220.38c0-10.28-0.55-20.49-1.76-30.5l57.29-33.09c-14.28-72.49-52.47-136.45-105.95-183.17l-57.19,33
		c-16.22-12.14-33.93-22.43-52.74-30.5v-66.09c-33.19-11.4-68.87-17.52-105.86-17.52c-36.99,0-72.58,6.12-105.77,17.43v66.19
		c-18.82,8.07-36.52,18.35-52.74,30.5l-57.29-33.09c-53.48,46.81-91.67,110.77-105.95,183.26l57.38,33.19
		c-1.2,10.01-1.76,20.11-1.76,30.4c0,10.29,0.56,20.48,1.76,30.41l-57.29,33.1c14.18,72.58,52.37,136.53,105.95,183.25l57.19-33
		c16.22,12.05,33.93,22.34,52.74,30.5v66.09c33.19,11.31,68.78,17.43,105.77,17.43c36.98,0,72.67-6.12,105.86-17.52v-66
		c18.82-8.16,36.52-18.45,52.74-30.5l57.19,33c53.48-46.81,91.68-110.67,105.86-183.25l-57.19-33.1
		C670.83,1240.86,671.38,1230.67,671.38,1220.38z M559.22,1253.57c-6.95,32.81-24.2,61.83-48.2,83.51
		c-16.41,14.93-35.96,26.42-57.56,33.38c-15.2,4.92-31.43,7.5-48.29,7.5c-16.87,0-33.09-2.59-48.29-7.5
		c-21.51-6.95-41.06-18.36-57.47-33.28c-24.01-21.69-41.25-50.8-48.38-83.61c-2.23-10.66-3.43-21.78-3.43-33.19
		c0-11.4,1.2-22.52,3.52-33.28c7.05-32.81,24.29-61.83,48.29-83.51c16.41-14.92,35.96-26.32,57.56-33.28
		c15.2-4.92,31.42-7.51,48.2-7.51c16.87,0,33.09,2.59,48.29,7.51c21.6,6.95,41.16,18.44,57.56,33.37
		c23.92,21.69,41.16,50.7,48.2,83.42c2.32,10.75,3.52,21.88,3.52,33.28C562.75,1231.79,561.54,1242.91,559.22,1253.57z"/>
	<g>
		<path class="st1" d="M1270.53,430.16c0,40.78-33.37,74.16-74.16,74.16H788.56c-40.78,0-74.16-33.37-74.16-74.16V277.67
			c0-40.78,33.37-74.16,74.16-74.16h407.82c40.78,0,74.16,33.37,74.16,74.16V430.16z"/>
	</g>
	<g>
		<g>
			<path class="st4" d="M1100.9,452.4c-4.6,0-9.22-1.71-12.81-5.14c-7.4-7.08-7.66-18.82-0.58-26.21l64.22-67.14l-64.22-67.14
				c-7.08-7.4-6.82-19.13,0.58-26.21c7.4-7.08,19.13-6.81,26.21,0.58l76.47,79.95c6.86,7.16,6.86,18.46,0,25.63l-76.47,79.95
				C1110.66,450.49,1105.79,452.4,1100.9,452.4z"/>
		</g>
		<g>
			<path class="st4" d="M884.03,452.4c-4.88,0-9.76-1.92-13.4-5.73l-76.47-79.95c-6.86-7.16-6.86-18.46,0-25.63l76.47-79.95
				c7.07-7.4,18.81-7.67,26.21-0.58c7.4,7.08,7.66,18.82,0.58,26.21l-64.22,67.14l64.22,67.14c7.08,7.4,6.82,19.13-0.58,26.21
				C893.25,450.7,888.64,452.4,884.03,452.4z"/>
		</g>
		<g>
			<path class="st4" d="M962.34,452.41c-2.17,0-4.38-0.38-6.53-1.19c-9.58-3.61-14.43-14.3-10.81-23.88l60.25-159.9
				c3.6-9.58,14.31-14.42,23.88-10.81c9.58,3.61,14.42,14.3,10.81,23.88l-60.25,159.9C976.89,447.83,969.83,452.41,962.34,452.41z"
				/>
		</g>
	</g>
	<path class="st6" d="M3123.28,2378.12c0,170-484.4,556.35-1081.93,556.35c-597.54,0-1081.93-386.35-1081.93-556.33
		c0-170,484.4-307.81,1081.93-307.81C2638.88,2070.32,3123.28,2208.13,3123.28,2378.12z"/>
</g>
<g id="Layer_2">
	<g>
		<path class="st2" d="M2619.94,1910.14c74.3,5.49,440.17,124.29,449.44,226.25c9.27,101.96-769.36,551.53-1110.58,546.9
			c-341.22-4.63-993.58-426.39-970.41-526.81s269.9-234.54,421.76-246.34C1600.18,1895.38,2619.94,1910.14,2619.94,1910.14z"/>
		<path class="st2" d="M1940.06,2462.17c51.75,12.55,142.13,82.07,174.58,100.61c32.44,18.54,173.8,104.28,185.39,141.36
			c11.59,37.08,9.27,145.99-69.52,178.44c-78.79,32.44-342.97-57.93-377.73-90.38C1813.37,2534.97,1940.06,2462.17,1940.06,2462.17z
			"/>
		<path class="st5" d="M987.79,2145.66c-26.59,39.4-34.16,196.98,0.6,252.59s410.17,305.89,843.52,393.95
			c-13.9-64.89,138.02-255.86,168.92-289.66C1684.12,2346.69,1229.4,2083.09,987.79,2145.66z"/>
		<path class="st2" d="M1972.5,2536.52c-198.52-22.4-451.54,95.78-469.87,169.94c-18.33,74.16-2.11,162.21,44.24,206.24
			c46.35,44.03,351.47,25.51,505.96-95C2084.51,2692.55,1972.5,2536.52,1972.5,2536.52z"/>
		<path class="st7" d="M1969.6,2572.28c-82.85-3.32-244.28,39.16-290.63,80.87c27.81,71.84,48.66,176.12,25.49,210.88
			c92.69,16.22,272.93-30.13,324.17-71.84C2033.53,2724.99,1969.6,2572.28,1969.6,2572.28z"/>
		<path class="st5" d="M3069.38,2136.39c35.57,60.26,55.62,217.84,0,273.46s-648.86,355.33-1016.55,407.85
			c-55.62-52.53-95.78-250.28-80.33-281.18C2219.68,2348.04,2778.94,2100.85,3069.38,2136.39z"/>
	</g>
	<g>
		<path class="st7" d="M2587.45,1665.15c9.87,124.84-53.3,139.04-97.33,169.17s-30.13,120.5-13.9,273.45
			c-99.65,78.79-639.58,196.97-938.52,37.08c6.95-44.03,11.59-164.53,4.63-217.83c-6.95-53.3-32.44-83.42-122.82-136.72
			c-90.38-53.3,4.63-625.69,44.03-674.35c39.4-48.66,282.72-201.61,410.17-220.14c0,0,194.65-11.59,273.44,0
			c78.79,11.59,363.82,145.99,440.3,234.05C2663.92,1217.9,2580.49,1577.09,2587.45,1665.15z"/>
		<path class="st1" d="M2315.47,2156.47c12.37-3.09,271.91-46.35,386.24-129.77c160.24-116.94-49.57-818.71-103.29-880.31
			c0,0-41.1-67.52-158.16-123.39c-89.18,53.54-67.93,299.94-61.37,350.16c20.01,152.99,83.26,363.92,97.26,412.53
			c-33.98,37.08-197.75,111.23-197.75,111.23L2315.47,2156.47z"/>
		<path class="st1" d="M1722.23,2171.93c0,0-111.17,5.16-216.29-30.9c-378.05-129.7-193.03-853.6-42.4-1025.08
			c0,0,50.68-54.57,117.29-88.53c54.72,22.69,98.8,166.96,66.55,331.9c-30.21,154.49-73.46,454.19-73.46,485.1
			c33.99,24.72,132.86,74.16,132.86,74.16L1722.23,2171.93z"/>
		<path class="st3" d="M2528.52,2252.25H1490.63l-44.95-652.46c269.05-42.35,902.97-42.35,1127.79,0L2528.52,2252.25z"/>
		<path class="st8" d="M2079.1,1910.14c0,38.4-31.12,69.52-69.52,69.52c-38.4,0-69.52-31.12-69.52-69.52
			c0-38.4,31.12-69.52,69.52-69.52C2047.97,1840.62,2079.1,1871.74,2079.1,1910.14z"/>
		<polygon class="st9" points="2528.52,2252.25 2528.52,2306.32 1489.91,2306.32 1490.63,2252.25 		"/>
	</g>
	<g>
		<path class="st10" d="M2171.1,761.39c-4,41.73-7.73,145.22,18.54,182.3c-100.42,88.06-293.53,71.06-356.87,10.81
			c13.9-49.44,13.9-151.4,0-183.84c-13.9-32.44,163.76-57.16,163.76-57.16L2171.1,761.39z"/>
		<path class="st2" d="M1688.51,506.54c-123.72-293.62,60.84-302.86,60.84-302.86C1789.51,68.75,2039.65,47.89,2123.2,77
			c137.5,47.89,232.37,194.49,169.64,419.5c0,0-77.32,337.3-263.87,336.73C1841.83,832.65,1688.51,506.54,1688.51,506.54z"/>
		<path class="st10" d="M2330.2,575.23c0,71.49-63.84,91.92-103.5,91.92c-39.68,0-28.19-63.83-28.19-103.93
			c0-40.1,5.5-79.91,45.19-79.91C2283.37,483.3,2330.2,501.84,2330.2,575.23z"/>
		<path class="st10" d="M1647.38,588.42c0,71.49,63.83,91.92,103.51,91.92s28.19-63.83,28.19-103.93c0-40.1-5.51-79.91-45.19-79.91
			S1647.38,515.04,1647.38,588.42z"/>
		<path class="st11" d="M2075.49,890.64c-72.79,32.96-183.86,28.84-233.38,0c0.95-22.69,1.48-51.27,0-67.7
			C1900.74,841.72,2075.49,890.64,2075.49,890.64z"/>
		<path class="st12" d="M1716.9,517.29c0,222.47,111.23,378.5,312.06,378.5c200.83,0,247.18-262.63,247.18-378.5
			s-186.93-248.73-287.34-248.73C1744.71,268.56,1716.9,517.29,1716.9,517.29z"/>
		<path class="st11" d="M1716.9,575.23c81.88-51.76,103.43-136.86,122.05-147.54c107.76-61.79,182.49,46.86,333.69-6.18
			c0,0,30.9,95.31,103.5,124.51c3.39-61.42-74.81-166.31-120.83-207.98c-46.02-41.67-313.37-87.75-362.76,12.53
			C1743.16,450.86,1716.9,575.23,1716.9,575.23z"/>
		<path class="st2" d="M1716.9,575.23c60.25-39.39,89.6-127.46,94.24-161.45c135.95-100.42,237.9,29.36,372.31-9.27
			c10.83,49.44,60.25,122.34,92.69,141.51c5.99-38.84,27.21-103.01,10.23-146.27c-17-43.26-37.51-196.08-305.03-203.8
			c-267.53-7.72-307.69,163.76-301.51,216.29S1716.9,575.23,1716.9,575.23z"/>
		<ellipse class="st2" cx="2101.96" cy="589.32" rx="17.38" ry="29.55"/>
		<ellipse class="st2" cx="1912.52" cy="589.32" rx="17.38" ry="29.55"/>
		<path class="st13" d="M2078.32,482.5c0,0,0.11-0.4,0.31-1.15c0.25-0.72,0.54-1.98,1.14-3.15c1.12-2.52,3.02-5.9,6.01-8.92
			c1.47-1.61,3.15-3.24,5.16-4.5c1.92-1.45,4.11-2.77,6.46-3.87c2.41-0.96,4.92-2.02,7.64-2.5c2.68-0.62,5.47-0.94,8.29-0.99
			c2.82-0.02,5.65,0.16,8.4,0.76c2.77,0.38,5.41,1.38,7.89,2.4c2.52,0.85,4.71,2.54,6.75,3.88c2.1,1.21,3.8,2.97,5.27,4.64
			c3.06,3.07,4.82,6.6,5.81,9.16c1.01,2.57,1.34,4.22,1.32,4.22l0.14,0.74c0.09,0.43-0.2,0.83-0.62,0.91
			c-0.16,0.03-0.33,0-0.47-0.06c0,0-1.01-0.47-2.81-1.3c-1.76-0.88-4.31-2-7.46-3.07c-1.56-0.62-3.26-1.23-5.12-1.63
			c-1.85-0.45-3.77-1.07-5.85-1.29c-4.09-0.69-8.53-1.08-12.95-0.84c-8.87-0.1-17.71,1.86-24.02,4.05
			c-6.41,2.05-10.37,4.1-10.37,4.1c-0.38,0.2-0.85,0.05-1.05-0.33c-0.11-0.18-0.13-0.38-0.07-0.56L2078.32,482.5z"/>
		<path class="st13" d="M1867.51,482.47c0,0,0.33-1.65,1.35-4.06c1.01-2.38,2.69-5.5,5.25-8.37c1.27-1.48,2.7-3.04,4.41-4.25
			c1.7-1.27,3.47-2.78,5.56-3.72c4.06-2.17,8.9-3.51,13.98-3.95c5.09-0.36,10.5,0.43,15.33,2.28c4.84,2.06,9.07,4.99,11.84,8.41
			c1.43,1.66,2.47,3.49,3.28,5.04c0.86,1.5,1.18,3.29,1.51,4.53c0.55,2.64,0.48,4.22,0.48,4.22l-0.03,0.79
			c-0.02,0.43-0.38,0.75-0.8,0.74c-0.14-0.01-0.28-0.05-0.39-0.13c0,0-0.83-0.54-2.29-1.48c-1.36-1.09-3.64-2.05-6.3-3.29
			c-2.73-1.08-6.05-2.01-9.71-2.52c-3.67-0.43-7.64-0.5-11.59-0.11c-7.94,0.45-15.83,2.35-21.56,4.22c-5.78,1.8-9.51,3.32-9.51,3.32
			c-0.37,0.15-0.79-0.03-0.94-0.39c-0.05-0.14-0.07-0.28-0.04-0.41L1867.51,482.47z"/>
		<path class="st13" d="M2041.13,656.9c0,0,0.43,1.31,1.18,3.59c0.67,2.21,2.05,5.38,3.48,9.22c2.95,7.69,7.1,18,9.34,29.43
			c0.96,5.72,1.68,11.82-0.02,18.02c-0.78,3.07-2.59,6.15-5.07,8.2c-2.46,2.07-5.29,3.06-7.69,3.43c-4.91,0.79-8.49-0.32-11.01-0.73
			c-2.44-0.7-3.8-1.18-3.8-1.18c-0.76-0.27-1.16-1.12-0.89-1.89c0.2-0.58,0.72-0.95,1.32-0.99l0.11,0c0,0,1.39-0.07,3.73-0.05
			c2.28-0.11,5.74-0.27,8.96-1.47c3.28-1.28,5.5-3.33,6.14-7.36c0.71-3.98,0.13-9.16-0.87-14.28c-2.05-10.34-5.18-21.01-6.63-29.35
			c-0.81-4.16-1.05-7.74-1.23-10.3c-0.15-2.61,0.05-3.94,0.05-3.94l0.02-0.13c0.13-0.81,0.89-1.37,1.7-1.24
			C2040.52,655.97,2040.97,656.38,2041.13,656.9z"/>
		<path class="st13" d="M1948.39,771.74c0,0,2.35,0.96,6.32,2.85c1.99,1.09,4.41,1.89,7.01,2.78c2.57,0.96,5.49,1.97,8.96,2.85
			c3.33,1.03,7.03,1.86,10.96,2.66c3.86,0.98,8.15,1.28,12.4,2.11c4.35,0.48,8.85,0.91,13.43,1.25c4.6,0.3,9.26,0.45,13.95,0.38
			c4.69,0.23,9.37-0.23,13.99-0.38c4.56-0.52,9.18-0.52,13.49-1.3c4.36-0.59,8.58-1.11,12.51-1.97c4.02-0.63,7.57-1.76,11.06-2.48
			c3.28-1.09,6.45-1.9,9.11-2.86c2.55-1.13,5.01-1.88,6.84-2.76c3.57-1.86,5.79-2.91,5.79-2.91l0.43-0.2
			c1.47-0.69,3.22-0.05,3.91,1.41c0.51,1.08,0.29,2.3-0.43,3.15c0,0-1.7,1.97-5,5.4c-3.46,3.14-8.82,7.19-15.9,10.85
			c-3.58,1.54-7.42,3.73-11.73,4.99c-4.25,1.52-8.78,3.03-13.58,3.99c-4.78,1.23-9.78,1.87-14.88,2.66
			c-5.12,0.33-10.32,0.96-15.55,0.88c-5.23,0.16-10.45-0.34-15.59-0.78c-5.13-0.41-10.14-1.51-14.95-2.48
			c-4.78-1.26-9.41-2.3-13.63-4.12c-2.11-0.81-4.16-1.61-6.15-2.37c-1.91-0.99-3.75-1.94-5.52-2.86c-3.53-1.68-6.68-3.76-9.36-5.78
			c-2.78-1.87-4.96-3.62-6.41-5.21c-3.13-3.09-4.85-4.96-4.85-4.96c-1.11-1.22-1.03-3.12,0.19-4.24
			C1946.09,771.48,1947.34,771.31,1948.39,771.74z"/>
	</g>
</g>
</svg>
