<?xml version="1.0" encoding="utf-8"?>
<!-- Generator: Adobe Illustrator 26.0.0, SVG Export Plug-In . SVG Version: 6.00 Build 0)  -->
<svg version="1.1" id="Camada_1" xmlns="http://www.w3.org/2000/svg" xmlns:xlink="http://www.w3.org/1999/xlink" x="0px" y="0px"
	 viewBox="0 0 500 500" style="enable-background:new 0 0 500 500;" xml:space="preserve">
<style type="text/css">
	.st0{display:none;}
	.st1{display:inline;fill:#FFFFFF;}
	.st2{fill:#A8B2F4;}
	.st3{fill:#7C84D5;}
	.st4{fill:none;stroke:#7C84D5;stroke-miterlimit:10;}
	.st5{fill:#5661AF;}
	.st6{fill:none;stroke:#FFFFFF;stroke-miterlimit:10;}
	.st7{fill:none;stroke:#FFFFFF;stroke-width:1;stroke-miterlimit:9.9996;}
	.st8{fill:none;stroke:#FFFFFF;stroke-width:1;stroke-miterlimit:9.9997;}
	.st9{fill:#3D2624;}
	.st10{fill:#C56E5D;}
	.st11{fill:#F7DBC6;}
	.st12{fill:#AF5448;}
	.st13{fill:#913D37;}
	.st14{fill:#743F3D;}
	.st15{fill:#5E3030;}
	.st16{fill:#EFC9B6;}
</style>
<g id="BACKGROUND" class="st0">
	<rect x="-500" y="126.2" class="st1" width="500" height="500"/>
</g>
<g id="OBJECT">
	<g>
		<path class="st2" d="M424,334.1c-10.6-4.8-12.2-16.2-16.5-22.2s-14.9-9.6-14.9-9.6s10.1-7.8,26.2-6c7.5,0.9,13.2,4.3,17.9,8
			c-2.4-6.9,0-10.9-4.1-17.5c-4.8-7.7-14.2-11.8-19.5-24.6c-5.3-12.8,0-24.2,0-24.2s1.6,4.6,8,9.2c5.8,4.1,21.9,4.7,31.5,17.1
			c-5-69.9-53.5-108.1-87.1-128c-28.9-17.1-47.5-52.8-125.5-47.7c-78,5.2-95.4,55.2-114.7,93.1c-10.7,21-34.9,25.6-55.3,40
			c15.1-3.9,24.7,3.3,36,5.6c13.6,2.8,15.8-6.9,28-6.8s16.8,4.4,16.8,4.4s-12.2-1.8-16.2,8.6c-4,10.4-8.9,14.3-21.1,12.7
			c-12.2-1.6-15.8-0.8-22.3,5.1s-21.5,1.5-30.1,3.7c-5.1,1.3-12,10.3-16.8,17.4c3.9-3.1,9.2-6.6,16.3-9.8
			c19.9-8.9,45.3,7.4,45.3,7.4s-20,4.6-31.7,12.5s-19.9,0.3-27.8,3.1c-4,1.4-7.2,2.8-9.4,3.8c0,0,0,0.1,0,0.1
			c-1.6,24.8,7.8,46.7,23.6,65.6c38.9,46.1,117,73.4,169.5,76.7c55,3.4,151.4-17,197.3-77.9c4-5.4,7.7-11.1,10.9-17.1
			C433.7,336.8,428.4,336.2,424,334.1z"/>
		<ellipse class="st3" cx="196.5" cy="190.5" rx="28.9" ry="28.9"/>
		<circle class="st3" cx="395.4" cy="161.6" r="10.5"/>
		<path class="st3" d="M427.4,353.9c-45.8,60.9-142.3,81.3-197.2,77.9c-52.6-3.3-130.6-30.6-169.5-76.7
			c14.8-16.4,52.7-49.7,122.6-59c94-12.6,159.5,62,230.5,58.1C418.5,353.9,423,353.8,427.4,353.9z"/>
		<path class="st4" d="M122.8,159.9c8.7-26.2-11.9-14.1-19.7,2.6c-7.8,16.7-22.5,18.5-22.5,27.9C80.5,199.9,114,186.1,122.8,159.9z"
			/>
		<path class="st4" d="M362,127.1c0,0-24.3-20.7-34.2-27.3c-9.9-6.7-5.5-15.6,17.1-5.3s32.2,30.3,29.3,34.4
			C371.1,133.1,362,127.1,362,127.1z"/>
		<path class="st5" d="M136.1,188.9c0,0.9-0.7,1.6-1.6,1.6c-0.9,0-1.6-0.7-1.6-1.6s0.7-1.6,1.6-1.6
			C135.4,187.4,136.1,188.1,136.1,188.9z"/>
		<path class="st5" d="M149.3,191.9c0,0.9-0.7,1.6-1.6,1.6s-1.6-0.7-1.6-1.6s0.7-1.6,1.6-1.6S149.3,191,149.3,191.9z"/>
		<path class="st5" d="M193.3,145c0,0.9-0.7,1.6-1.6,1.6s-1.6-0.7-1.6-1.6s0.7-1.6,1.6-1.6S193.3,144.2,193.3,145z"/>
		<path class="st5" d="M398.5,284.1c0,0.9-0.7,1.6-1.6,1.6s-1.6-0.7-1.6-1.6s0.7-1.6,1.6-1.6S398.5,283.2,398.5,284.1z"/>
		<path class="st5" d="M403.9,279.8c0,0.9-0.7,1.6-1.6,1.6s-1.6-0.7-1.6-1.6s0.7-1.6,1.6-1.6S403.9,279,403.9,279.8z"/>
		<circle class="st5" cx="143.6" cy="183.8" r="2.5"/>
		<circle class="st5" cx="410" cy="200.9" r="2.5"/>
		<path class="st6" d="M141.1,276.9c0,1.8-1.5,3.3-3.3,3.3s-3.3-1.5-3.3-3.3s1.5-3.3,3.3-3.3C139.6,273.6,141.1,275.1,141.1,276.9z"
			/>
		<path class="st6" d="M326,137.3c0,1.8-1.5,3.3-3.3,3.3s-3.3-1.5-3.3-3.3s1.5-3.3,3.3-3.3C324.6,134.1,326,135.5,326,137.3z"/>
		<ellipse class="st7" cx="162.2" cy="126.9" rx="10.4" ry="10.4"/>
		<ellipse class="st8" cx="444.9" cy="216.8" rx="21.4" ry="21.4"/>
		<circle class="st6" cx="44.1" cy="320.8" r="21.4"/>
	</g>
	<g>
		<path class="st9" d="M206.1,103.3c0,0-4.5,2.3-4.7,12.2c-0.2,9.9,9.2,14.4,15.2,14.3l-0.5-1.5c0,0-10.1-1.1-12.8-9.7
			s3.1-14.4,3.1-14.4L206.1,103.3z"/>
		<path class="st9" d="M370.2,275.4c0,0-2.1,15.6-29.4,21.5s-55.5-9.6-55.5-9.6l4.6-0.5c0,0,15.9,9.2,35.1,8.1s30-12.8,30-12.8
			L370.2,275.4z"/>
		<path class="st9" d="M376.9,200c1.7-19.3-24.9-39.1-56.7-44.2s-29.5-39-29.5-39l-63.4,36.5c0,0-2.9,30.2-24.1,47.3
			c-21.1,17-24.8,57.2-14.9,73.1s27.5,17,54.8,15.3s40-0.3,70.4,2.3s52.1,9.5,70.5-24.2C402.7,233.3,376.9,200,376.9,200z
			 M374.4,198.4c0,0-3.3-9.5-15.7-19.3S336.2,164,336.2,164c38.8,12.2,39.2,34.4,39.2,34.4H374.4z"/>
		<path class="st10" d="M205.5,182.8c0,0-9,8.1-15.4,25.1c-6.4,17-19.8,69.7-19.8,69.7l21.8,13.6l21-57.5L205.5,182.8z"/>
		<path class="st11" d="M292.2,264.5c-3.3,9.8-2.5,20.5,2.3,29.7l1.2,5v0l3.2,13.8c-21.9,19-52.4,25.4-71.1,21.3
			c-18.7-4.1-23.5-19.5-23.5-19.5l2.9-20.3l-5-45.1c0,0-3.9-5.9-5.5-19.6c-1.7-13.6,8.8-47.2,8.8-47.2l34.1-13.6l24.9-2.1l41.5,15.8
			l5.4,13.4c-0.2,7.4-5.7,26.6-11.4,44.6C297.3,249.5,294.5,257.8,292.2,264.5z"/>
		<path class="st10" d="M264.8,169.3c-3.9,7.1-17.8,16-23.4,14.1s-1.1-12-1.1-12c0.1-1.4,0.1-2.7,0.1-3.9c0.3-8,0.2-11.4,0.2-11.4
			l24.1-16c-0.6,2.9-0.8,6.2-0.9,9.6C263.5,159.4,264.8,169.3,264.8,169.3z"/>
		<path class="st12" d="M264.8,140c-0.6,2.9-0.8,6.2-0.9,9.6c-2.8,4.1-7.4,10.4-12.2,13.8c-4.9,3.5-9,4.1-11.2,4
			c0.3-8,0.2-11.4,0.2-11.4L264.8,140z"/>
		<path class="st10" d="M214.4,131.5c0,0,0.8,19.8,14.8,28.7c13.9,8.9,33.4-9.7,36.8-20.1c3.3-10.3,2.2-32.6,2.2-32.6
			s-18.4-12.2-32.3-12.2c-13.9,0-21.4,7-21.4,7S214.4,121.2,214.4,131.5z"/>
		<path class="st9" d="M230.2,95.7c0,0-0.4,7.3,12.9,15.8c13.4,8.5,20.6,10.2,20.6,10.2l2.8,15.6c0,0-1.9,4.9-2.5,6.7
			c-0.6,1.9-0.4,8.1-0.4,8.1s11.3-1.7,15.2-12.1c0,0,11.5-8.6,12-24.2s-7.7-20.5-7.7-20.5s-2.1-18.7-22.7-21.9
			c-20.6-3.2-37,8.3-37,8.3s-10-1.4-15.4,5.7s-1.9,15.7-1.9,15.7s-4.7,4.6-1.9,12.1c2.8,7.5,10.2,8.5,10.2,8.5s0.7-12.8,4.4-19.2
			C222.6,98.3,230.2,95.7,230.2,95.7z"/>
		<path class="st10" d="M264.8,124c0,0,2.6-6.5,8.1-7.2s5.9,8.9,2.1,15.3s-9,5.1-9,5.1L264.8,124z"/>
		<path class="st9" d="M262.1,116.7c0,0,3.6,10.9,1.5,19.5c0,0,0.6-0.6,1.4-1.7c1.8-2.6,2.5-12.2,3.3-15.5L262.1,116.7z"/>
		<path class="st9" d="M223.3,82.8c0,0,4.6-6.6,13.2-9.3s15.9,0,15.9,0l1.4-0.1c0,0-8.1-3.9-17.2-1.1c-9.1,2.8-15.4,9.9-15.4,9.9
			L223.3,82.8z"/>
		<path class="st9" d="M283.3,95.3c0,0,4.8,0.9,7.7,6.1c2.9,5.2-0.1,10.5-0.1,10.5l-0.5-0.6c0,0,2.3-4.5-0.6-9.4
			c-2.9-4.9-6.5-4.6-6.5-4.6V95.3z"/>
		<path class="st9" d="M216.1,120.6c0,0,0.6-1.3,4.7-1.2c4.1,0.1,6.6,2.4,6.6,2.4s-1.9-3.5-5.6-4C218,117.2,216.2,120,216.1,120.6z"
			/>
		<path class="st9" d="M230.2,95.7c0,0-0.6,7.1,3.5,12.9s16.5,5.8,16.5,5.8l0.5,1.1c0,0-12.2,0.1-17.1-4.3s-5.5-11.7-4.6-15.5
			C229.1,95.7,230.2,95.7,230.2,95.7z"/>
		<path class="st9" d="M238.5,121c0,0,0.7-1.5,5.4-1.4c4.8,0.1,7.6,2.8,7.6,2.8s-2.2-4.1-6.5-4.7C240.7,117.1,238.6,120.4,238.5,121
			z"/>
		<path class="st13" d="M227.4,139.8c0,0,0.6,0.6,3,1.3c2.4,0.7,4,0,4,0s-0.7-1.3-2.6-1.6C230,139.2,227.4,139.8,227.4,139.8z"/>
		<path class="st12" d="M227.4,121.7c0,0,1.3,1.4,1.8,5s0,6.5,0,6.5S227.5,123.7,227.4,121.7z"/>
		<path class="st12" d="M216.6,125.8c0,0,2,0.9,4.6,1.2s5.7-0.5,5.7-0.5s-1.2-3.1-3.9-3.9C218.7,121.4,216.6,125.8,216.6,125.8z"/>
		<path class="st12" d="M238.5,126.3c0,0,0.4-3.2,4.5-3.9c4.1-0.7,9,3.6,9,3.6S243.9,129.8,238.5,126.3z"/>
		<path class="st9" d="M221.9,126.9c-2.7-0.1-5.2-1.1-5.2-1.1l-0.5,0.3c-0.3,0.2-1.1,0.3-1.1,0.3c0.7,0.3,1.5,0.3,2,0.2
			c0.9,0.5,2.6,1.3,4.8,1.3c3.4,0.1,5.1-1.1,5.1-1.1v-0.5C226.9,126.4,224.6,126.9,221.9,126.9z"/>
		<path class="st9" d="M252,126c0,0-3.3,1-6.7,1.1c-3.4,0.1-6.6-0.9-6.6-0.9l-0.6,0.4c-0.4,0.3-1.4,0.4-1.4,0.4
			c0.9,0.3,1.9,0.2,2.5,0.2c1.2,0.5,3.3,1.2,6,1.1c4.3-0.1,5.6-1.1,6.5-1.8C251.8,126.4,252,126,252,126z"/>
		<path class="st13" d="M227.4,146.1c0,0,0.7,0.3,3.5,0.9s9.5-0.9,9.5-0.9s-4.9-0.8-6.5-0.7c-1.6,0.1-2.6,0.9-2.6,0.9
			s-1.4-1.1-2.3-1.1s-2.5,0.5-2.5,0.5L227.4,146.1z"/>
		<path class="st12" d="M228.4,149c0,0,1.9,1.3,4.7,1.4c2.8,0.1,5.8-1.1,5.8-1.1s-1.7,2.4-5.2,2.8C230.1,152.5,228.4,149,228.4,149z
			"/>
		<path class="st14" d="M194.2,327.2l12-25.6c0,0,8,8.4,32.3,9.2s57.2-11.5,57.2-11.5s8.4,21.7,8.4,29.8s-48,40-48,40l-28.5-2.1
			L194.2,327.2z"/>
		<path class="st10" d="M192.9,369c0,0-7.9,3.1-10.6,4.3c0,0-11.8,1.2-16.5,2.6c-4.7,1.4-5.9,7.7-7.1,14.5s-10,16-12.7,20.8
			c-2.7,4.8-1.4,10.4-1.1,11.6c0.4,1.2-1.2,5.2,0.8,7.6c2,2.5,3.1,1.2,4.2,0.6s1.4-2.8,1.4-2.8s3-0.6,4.2-1.5s0-0.9,2.8-1.8
			c2.8-0.9,4.3-1.6,5.8-2.8c1.6-1.1,10.4-16.5,16.1-21.5c5.6-4.9,15.8-6.6,15.8-6.6L192.9,369z"/>
		<path class="st14" d="M346.9,396.6c-19.2,4.8-60.9,8.2-98.2,10.5c-38.5,2.3-72.4,3.3-72.4,3.3l-5.7-18.1l-5.1-16l111.9-22.2
			c0,0-3-23.2,21.3-35.6c0,0,72.5,0.6,90.1,21C406.4,359.8,387.4,386.4,346.9,396.6z"/>
		<path class="st10" d="M237.7,390.3c0,0,7.9,3.1,10.6,4.3c0,0,11.8,1.2,16.5,2.6c4.7,1.4,5.9,7.7,7.1,14.5s10,16,12.7,20.8
			c2.7,4.8,1.4,10.4,1,11.6c-0.4,1.2,1.2,5.2-0.8,7.6s-3.1,1.2-4.2,0.6c-1.1-0.6-1.4-2.8-1.4-2.8s-3-0.6-4.2-1.5
			c-1.1-0.9,0-0.9-2.8-1.8c-2.8-0.9-4.3-1.6-5.8-2.8c-1.6-1.1-10.4-16.5-16.1-21.5c-5.6-4.9-15.8-6.6-15.8-6.6L237.7,390.3z"/>
		<path class="st14" d="M200.4,322.7c0,0-95.6,0-110.9,17c-15.3,17-6.8,38.7,5.5,45.9s141.6,36.1,141.6,36.1l6.8-39.5l-19.1-6
			l10.2-13.7L200.4,322.7z"/>
		<path class="st15" d="M200.1,326.4c0,0,20,24.7,30.8,32C230.9,358.4,208.6,356.1,200.1,326.4z"/>
		<path class="st15" d="M123,347.8c0,0,16.6,2.1,42.5,7.6c25.9,5.5,58.7,20.8,58.7,20.8s-33.6-23-60-28.5
			C137.9,342.2,123,347.8,123,347.8z"/>
		<path class="st15" d="M215.5,370.7c0,0,77.1-23,109.4-28.3c0,0-68.3,20.5-100.7,33.9L215.5,370.7z"/>
		<path class="st15" d="M289.8,324.3c0,0-37.4,18.5-50,37.2C239.9,361.5,279.3,341.3,289.8,324.3z"/>
		<path class="st10" d="M192.1,291.2c0,0-6.4-15.5-21.2-15.6l-59.1,40.1c-1.1-0.6-3.1-1.4-6.2-2c-5.3-1-15.8-0.9-18.6-1.4
			c-1.3-0.2-1.4,0.4-0.8,1.3c-0.9-0.4-2.2,0.6-3.3,2.2c-1.7,2.5-5.9,7.1-5.9,9.7c0,2.6,4.6,5.2,7.3,5.3c0,0-9.3,2.4-11,5.7
			c-1.7,3.3,2.8,2.9,4.3,2.1c1.5-0.7,11-3.3,11-3.3s-9.4,5.2-9.7,8.8s3,1.5,5.9,0s8.3-4.2,8.3-4.2s-7.7,5.6-6.3,8
			c1.4,2.5,7.7-3.2,12.8-5.5s8.9-2.6,13.2-4.3c6-2.3,9.2-7.4,9.2-7.4C132.5,326.8,177.8,309.2,192.1,291.2z M92.5,324.9
			c-4.2,1.5-9,0-9.7-0.7c-0.6-0.7,4.1-5.1,4.1-8.4c0-0.5-0.1-0.9-0.2-1.2c0.7,0.7,1.7,1.5,2.6,1.9c2.6,1.1,8.3,1.7,9.8,2.6
			C100.7,319.8,96.7,323.4,92.5,324.9z"/>
		<path class="st9" d="M386.8,240.4c0,0,5.4,16.4,1.7,28.7c-3.7,12.2-17.8,15-17.8,15l2.3-2.8c0,0,13.9-2.3,14.7-21.4
			C388.4,242.9,386.8,240.4,386.8,240.4z"/>
		<path class="st12" d="M100,318.7c0,0,4.7,2.7,9.9,2.7c5.2,0-1.1,2.3-4.9,1.2C101,321.4,100,318.7,100,318.7z"/>
		<path class="st12" d="M116.4,328c0,0-3.2,0.1-7.7,2.4c-4.5,2.3-6.8,8.3-8,7.3C99.6,336.8,102.8,327.7,116.4,328z"/>
		<path class="st12" d="M85.6,330.7c0,0,9.8,7.9,10.9,8C97.7,338.8,92.5,331.1,85.6,330.7z"/>
		<path class="st16" d="M205.7,245.9c0,0,4.8-2.5,19.5-2.5c14.7,0,39.1,5.7,39.1,5.7S219.3,249.3,205.7,245.9z"/>
		<path class="st16" d="M294.5,294.5l1.2,5v0l-20.8,6.4c0,0,10.6-25.6,10.4-45.2c-0.2-19.6,6.2-44,6.2-44l8.5,24.4
			c-2.7,8.6-5.5,16.9-7.8,23.7C288.9,274.6,289.7,285.3,294.5,294.5z"/>
		<path class="st10" d="M402.1,355.3c-1.1-3.6-9.8-7.6-9.8-7.6c2.7,0.4,7.7-1.3,8.2-3.9c0.5-2.5-2.8-7.9-4-10.6
			c-0.8-1.8-1.9-3-2.9-2.8c0.7-0.8,0.8-1.4-0.6-1.4c-2.8,0-13.1-2.1-18.5-2.1c-2.2,0-3.9,0.2-5.1,0.5l-39.6-55.7
			c-2.2-13.6-5.2-48.1-8.8-63.3c-4.7-20-15.1-25.5-15.1-25.5s-12.9,7.7-15.1,22.6c-2.1,14.9,16.8,81.4,16.8,81.4
			c6.7,18.9,42.2,49.2,47.1,54.9l0,0c0,0,2.6,4.5,8,7.9c3.9,2.4,7.6,3.5,12.2,6.7c4.6,3.2,9.7,10,11.5,7.8c1.8-2.2-4.7-9.1-4.7-9.1
			s4.7,3.7,7.4,5.7c2.6,2,5.4,4.7,5.8,1.1c0.4-3.6-7.9-10.4-7.9-10.4s8.9,4.3,10.2,5.3C398.8,357.6,403.2,358.9,402.1,355.3z
			 M385.3,340.3c-3.9-2.2-7.1-6.5-5.5-7.1c1.6-0.6,7.3-0.1,10.1-0.7c1-0.2,2.1-0.8,2.9-1.4c-0.2,0.3-0.3,0.7-0.4,1.2
			c-0.6,3.3,3.2,8.4,2.5,9C394.2,342,389.2,342.5,385.3,340.3z"/>
		<path class="st12" d="M378.6,333.7c0,0-4.7,2.7-9.9,2.7c-5.2,0,1.1,2.3,4.9,1.2C377.5,336.4,378.6,333.7,378.6,333.7z"/>
		<path class="st12" d="M358.8,340.7c0,0,3.2,0.1,7.6,2.4c4.5,2.3,6.8,8.3,8,7.3C375.6,349.5,372.4,340.4,358.8,340.7z"/>
		<path class="st12" d="M388.4,346.1c0,0-9.8,7.9-10.9,8C376.3,354.2,381.5,346.5,388.4,346.1z"/>
		<path class="st16" d="M236.2,175.3c0,0-4.6,8.8,2.7,11.2s20-6,26.4-12.2c0,0-8.5,13.7-22.3,15.8
			C229.3,192.4,232.5,178.3,236.2,175.3z"/>
	</g>
</g>
</svg>
